<svg width="64" height="64" viewBox="0 0 64 64" fill="none" xmlns="http://www.w3.org/2000/svg">
<path fill-rule="evenodd" clip-rule="evenodd" d="M31.9447 3.47301C16.1593 3.47301 3.3626 16.2697 3.3626 32.0551C3.3626 47.8406 16.1593 60.6372 31.9447 60.6372C47.7302 60.6372 60.5268 47.8406 60.5268 32.0551C60.5268 16.2697 47.7302 3.47301 31.9447 3.47301ZM0 32.0551C0 14.4125 14.3021 0.110413 31.9447 0.110413C49.5873 0.110413 63.8894 14.4125 63.8894 32.0551C63.8894 49.6977 49.5873 63.9999 31.9447 63.9999C14.3021 63.9999 0 49.6977 0 32.0551Z" fill="white"/>
<path fill-rule="evenodd" clip-rule="evenodd" d="M31.9446 0C49.6464 0 63.9999 14.3536 63.9999 32.0553H60.4161C60.4161 16.3328 47.6671 3.58383 31.9446 3.58383V0Z" fill="#CE253D"/>
</svg>
