<svg width="34" height="30" viewBox="0 0 34 30" fill="none" xmlns="http://www.w3.org/2000/svg">
<path fill-rule="evenodd" clip-rule="evenodd" d="M32.8389 26.8039C33.4909 25.6522 33.7582 24.2238 33.7582 21.8755L33.7569 20.451H30.5973L30.5801 20.6513C30.5169 21.4275 30.0309 22.2155 29.2223 22.2155C28.6045 22.2155 28.108 21.9849 27.7024 21.5158C27.215 20.9557 26.7778 20.2824 26.3352 19.0608C27.5904 14.7979 31.4639 1.13802 31.4639 1.13802H24.112C24.112 1.13802 23.4337 4.33885 22.82 7.25372L22.8094 7.22931C22.7826 7.16739 22.7556 7.10491 22.7265 7.04552C22.1154 5.73699 21.1368 4.27955 20.0502 3.25697C18.1549 1.47405 15.9265 0.605652 13.2396 0.605652C9.52552 0.605652 6.38563 1.98007 3.90428 4.69069C1.43478 7.38418 0.132202 10.8406 0.132202 14.6845C0.132202 18.9646 1.36893 22.4804 3.81209 25.1304C6.36193 27.899 9.40699 29.1877 13.399 29.1877C15.7236 29.1877 17.9429 28.4959 20.0002 27.1347C21.3317 26.2557 22.5447 25.0395 23.6906 23.4595C24.1726 25.0184 24.6573 26.0844 25.2381 26.8817C26.1746 28.1691 27.5825 28.9084 29.0945 28.9084C30.6671 28.9084 32.1014 28.1006 32.8389 26.8039ZM9.74969 6.94792C10.8587 5.17686 12.2482 4.35063 14.121 4.35063C15.7898 4.35063 17.091 5.04508 18.2237 6.53546C19.4367 8.13917 20.4614 10.7892 21.1963 14.1929C20.273 18.7958 19.3695 21.5789 18.2764 23.1813C17.1621 24.8127 15.7055 25.6745 14.0683 25.6745C12.1586 25.6745 10.7138 24.818 9.64959 23.0496C8.53535 21.1968 7.97164 18.4216 7.97164 14.7965C7.97164 11.4744 8.56959 8.83363 9.74969 6.94792Z" fill="#CE253D"/>
</svg>
